<svg xmlns="http://www.w3.org/2000/svg" viewBox="0 0 100 100">
  <!-- Outer border -->
  <circle cx="50" cy="50" r="48" fill="#1a1a1a" stroke="#4a5568" stroke-width="2"/>
  
  <!-- Segments alternating black and cream -->
  <!-- 20 (top) -->
  <path d="M 50 2 L 50 50 L 64.6 6.7 Z" fill="#e8dcc4"/>
  <path d="M 50 2 L 50 50 L 35.4 6.7 Z" fill="#1a1a1a"/>
  
  <!-- 1 -->
  <path d="M 64.6 6.7 L 50 50 L 80.3 14.4 Z" fill="#1a1a1a"/>
  
  <!-- 18 -->
  <path d="M 80.3 14.4 L 50 50 L 93.3 35.4 Z" fill="#e8dcc4"/>
  
  <!-- 4 -->
  <path d="M 93.3 35.4 L 50 50 L 98 50 Z" fill="#1a1a1a"/>
  
  <!-- 13 -->
  <path d="M 98 50 L 50 50 L 93.3 64.6 Z" fill="#e8dcc4"/>
  
  <!-- 6 -->
  <path d="M 93.3 64.6 L 50 50 L 80.3 85.6 Z" fill="#1a1a1a"/>
  
  <!-- 10 -->
  <path d="M 80.3 85.6 L 50 50 L 64.6 93.3 Z" fill="#e8dcc4"/>
  
  <!-- 15 -->
  <path d="M 64.6 93.3 L 50 50 L 50 98 Z" fill="#1a1a1a"/>
  
  <!-- 2 -->
  <path d="M 50 98 L 50 50 L 35.4 93.3 Z" fill="#e8dcc4"/>
  
  <!-- 17 -->
  <path d="M 35.4 93.3 L 50 50 L 19.7 85.6 Z" fill="#1a1a1a"/>
  
  <!-- 3 -->
  <path d="M 19.7 85.6 L 50 50 L 6.7 64.6 Z" fill="#e8dcc4"/>
  
  <!-- 19 -->
  <path d="M 6.7 64.6 L 50 50 L 2 50 Z" fill="#1a1a1a"/>
  
  <!-- 7 -->
  <path d="M 2 50 L 50 50 L 6.7 35.4 Z" fill="#e8dcc4"/>
  
  <!-- 16 -->
  <path d="M 6.7 35.4 L 50 50 L 19.7 14.4 Z" fill="#1a1a1a"/>
  
  <!-- 8 -->
  <path d="M 19.7 14.4 L 50 50 L 35.4 6.7 Z" fill="#e8dcc4"/>
  
  <!-- Triple ring (green) -->
  <circle cx="50" cy="50" r="31" fill="none" stroke="#16a34a" stroke-width="3.5"/>
  
  <!-- Double ring (red) -->
  <circle cx="50" cy="50" r="46.5" fill="none" stroke="#dc2626" stroke-width="3"/>
  
  <!-- Outer bull (green) -->
  <circle cx="50" cy="50" r="6" fill="#16a34a"/>
  
  <!-- Bullseye (red) -->
  <circle cx="50" cy="50" r="2.5" fill="#dc2626"/>
  
  <!-- Number 20 at top -->
  <text x="50" y="8" text-anchor="middle" fill="white" font-size="8" font-weight="bold">20</text>
</svg>
